<svg width="100%" height="10%" id="svg" viewBox="0 0 1440 600" xmlns="http://www.w3.org/2000/svg" class="transition duration-300 ease-in-out delay-150"><defs><linearGradient id="gradient" x1="28%" y1="5%" x2="72%" y2="95%"><stop offset="5%" stop-color="#75b467"></stop><stop offset="95%" stop-color="#f4d03f"></stop></linearGradient></defs><path d="M 0,600 C 0,600 0,200 0,200 C 89.96410256410257,157.94102564102565 179.92820512820515,115.8820512820513 270,125 C 360.07179487179485,134.1179487179487 450.25128205128203,194.41282051282047 523,224 C 595.748717948718,253.58717948717953 651.0666666666666,252.46666666666667 729,236 C 806.9333333333334,219.53333333333333 907.4820512820513,187.7205128205128 986,199 C 1064.5179487179487,210.2794871794872 1121.0051282051281,264.65128205128207 1193,272 C 1264.9948717948719,279.34871794871793 1352.497435897436,239.67435897435897 1440,200 C 1440,200 1440,600 1440,600 Z" stroke="none" stroke-width="0" fill="url(#gradient)" fill-opacity="0.53" class="transition-all duration-300 ease-in-out delay-150 path-0"></path><defs><linearGradient id="gradient" x1="28%" y1="5%" x2="72%" y2="95%"><stop offset="5%" stop-color="#75b467"></stop><stop offset="95%" stop-color="#f4d03f"></stop></linearGradient></defs><path d="M 0,600 C 0,600 0,400 0,400 C 87.54871794871795,423.26153846153846 175.0974358974359,446.5230769230769 258,440 C 340.9025641025641,433.4769230769231 419.1589743589743,397.1692307692308 484,381 C 548.8410256410257,364.8307692307692 600.2666666666668,368.8 688,364 C 775.7333333333332,359.2 899.7743589743588,345.63076923076926 998,347 C 1096.2256410256412,348.36923076923074 1168.6358974358975,364.67692307692306 1238,376 C 1307.3641025641025,387.32307692307694 1373.6820512820514,393.6615384615385 1440,400 C 1440,400 1440,600 1440,600 Z" stroke="none" stroke-width="0" fill="url(#gradient)" fill-opacity="1" class="transition-all duration-300 ease-in-out delay-150 path-1"></path></svg>