<?xml version="1.0" standalone="no"?>
<svg xmlns:xlink="http://www.w3.org/1999/xlink" id="wave" style="transform:rotate(0deg); transition: 0.3s" viewBox="0 0 1440 220" version="1.1" xmlns="http://www.w3.org/2000/svg"><defs><linearGradient id="sw-gradient-0" x1="0" x2="0" y1="1" y2="0"><stop stop-color="rgba(255, 255, 255, 1)" offset="0%"/><stop stop-color="rgba(255, 255, 255, 1)" offset="100%"/></linearGradient></defs><path style="transform:translate(0, 0px); opacity:1" fill="url(#sw-gradient-0)" d="M0,44L48,69.7C96,95,192,147,288,165C384,183,480,169,576,146.7C672,125,768,95,864,73.3C960,51,1056,37,1152,29.3C1248,22,1344,22,1440,47.7C1536,73,1632,125,1728,139.3C1824,154,1920,132,2016,128.3C2112,125,2208,139,2304,139.3C2400,139,2496,125,2592,113.7C2688,103,2784,95,2880,80.7C2976,66,3072,44,3168,36.7C3264,29,3360,37,3456,55C3552,73,3648,103,3744,102.7C3840,103,3936,73,4032,55C4128,37,4224,29,4320,22C4416,15,4512,7,4608,7.3C4704,7,4800,15,4896,44C4992,73,5088,125,5184,150.3C5280,176,5376,176,5472,172.3C5568,169,5664,161,5760,139.3C5856,117,5952,81,6048,66C6144,51,6240,59,6336,58.7C6432,59,6528,51,6624,62.3C6720,73,6816,103,6864,117.3L6912,132L6912,220L6864,220C6816,220,6720,220,6624,220C6528,220,6432,220,6336,220C6240,220,6144,220,6048,220C5952,220,5856,220,5760,220C5664,220,5568,220,5472,220C5376,220,5280,220,5184,220C5088,220,4992,220,4896,220C4800,220,4704,220,4608,220C4512,220,4416,220,4320,220C4224,220,4128,220,4032,220C3936,220,3840,220,3744,220C3648,220,3552,220,3456,220C3360,220,3264,220,3168,220C3072,220,2976,220,2880,220C2784,220,2688,220,2592,220C2496,220,2400,220,2304,220C2208,220,2112,220,2016,220C1920,220,1824,220,1728,220C1632,220,1536,220,1440,220C1344,220,1248,220,1152,220C1056,220,960,220,864,220C768,220,672,220,576,220C480,220,384,220,288,220C192,220,96,220,48,220L0,220Z"/></svg>